<svg width="1010" height="373" viewBox="0 0 1010 373" fill="none" xmlns="http://www.w3.org/2000/svg">
<path d="M734.965 275.572C734.836 274.766 734.577 274.001 734.425 273.203C734.397 273.052 734.412 273.713 734.423 273.581C734.456 273.207 734.606 272.848 734.66 272.476C734.712 272.119 734.693 271.753 734.693 271.394C734.693 271.011 734.738 270.64 734.738 270.258C734.738 269.862 734.679 269.495 734.491 269.145C734.451 269.071 734.414 268.987 734.378 268.911C734.362 268.878 734.274 268.472 734.249 268.658C734.184 269.138 734.275 269.672 734.335 270.144C734.439 270.976 734.694 271.786 735.026 272.554C735.305 273.2 735.646 273.82 735.955 274.452C736.103 274.756 736.244 274.945 736.55 275.095C737.146 275.388 737.888 275.413 738.534 275.527C738.891 275.59 739.256 275.675 739.619 275.706C740.018 275.741 740.199 275.605 740.053 275.174C739.942 274.846 739.507 274.603 739.248 274.404C738.664 273.954 738.174 273.388 737.666 272.857C737.29 272.464 736.904 272.089 736.49 271.737C736.48 271.728 736.2 271.486 736.194 271.525C736.124 272.053 736.817 272.741 737.09 273.094C738.065 274.354 739.14 275.504 740.244 276.647C740.517 276.93 740.635 276.89 741.007 276.89C741.291 276.89 741.37 276.763 741.37 276.491C741.37 276.443 741.366 276.393 741.37 276.345C741.399 275.961 741.462 277.109 741.483 277.493C741.542 278.556 741.696 279.604 741.789 280.665C741.892 281.842 741.915 283.012 741.915 284.192C741.915 284.789 741.929 285.388 741.912 285.984C741.909 286.089 741.805 286.507 741.89 286.216C741.988 285.879 742.051 285.643 742.029 285.282C742 284.818 741.98 284.339 742.071 283.879C742.151 283.481 742.388 283.164 742.505 282.784C742.569 282.579 742.551 282.355 742.551 282.143C742.551 281.712 742.506 282.545 742.505 282.628C742.503 282.993 742.472 282.52 742.463 282.895C742.388 285.741 742.562 294.279 742.46 291.435C742.451 291.177 742.257 291.041 742.097 290.859C741.828 290.555 741.581 290.218 741.289 289.936C741.15 289.8 741.147 290.244 741.143 290.299C741.098 290.943 741.124 291.589 741.077 292.232C741.045 292.683 740.976 293.129 740.964 293.582C740.939 294.5 741.007 295.414 741.007 296.33C741.007 296.559 741.052 296.783 741.052 297.009C741.052 297.146 740.991 296.835 740.956 296.779C740.604 296.22 740.217 295.7 739.901 295.114C739.439 294.253 739.021 293.37 738.549 292.515C738.079 291.664 737.582 290.83 737.11 289.981C736.785 289.396 736.542 288.815 736.371 288.172C736.018 286.847 735.498 285.58 735.137 284.258C734.922 283.472 734.719 282.732 734.627 281.919C734.536 281.112 734.511 280.3 734.511 279.489C734.511 278.913 734.551 278.342 734.557 277.768C734.559 277.547 734.556 277.277 734.627 277.064C734.642 277.021 734.693 277.133 734.703 277.177C734.802 277.605 734.886 278.038 734.965 278.469C735.557 281.688 736.2 284.899 736.924 288.091C737.229 289.438 737.516 290.811 737.989 292.111C738.19 292.666 738.384 293.213 738.554 293.779C738.653 294.109 738.756 294.443 738.907 294.753C739.137 295.224 739.46 295.639 739.699 296.103C739.865 296.423 740.06 296.712 740.28 297.001C740.416 297.181 740.704 297.277 740.89 297.39C740.939 297.419 741.209 297.549 741.231 297.627C741.265 297.744 741.31 297.644 741.335 297.556C741.492 296.994 741.598 296.382 741.658 295.803C741.774 294.669 741.723 293.518 741.784 292.381C741.844 291.258 741.957 290.142 741.96 289.017C741.966 287.437 742.044 285.858 742.051 284.278C742.06 282.383 742.051 280.488 742.051 278.593C742.051 278.235 742.101 277.878 742.097 277.515C742.093 277.258 742.006 277.017 741.95 276.768C741.889 276.491 741.778 276.198 741.665 275.938C741.509 275.577 741.073 275.594 740.721 275.623C740.312 275.656 740.148 276.145 740.015 276.468C739.578 277.528 739.493 278.766 739.427 279.897C739.325 281.627 739.345 283.362 739.23 285.091C739.16 286.154 738.929 287.169 738.781 288.22C738.746 288.47 738.729 288.73 738.672 288.977C738.649 289.079 738.645 288.769 738.645 288.664C738.637 287.076 738.656 285.49 738.539 283.905C738.396 281.985 738.075 280.087 737.812 278.182C737.789 278.015 737.75 277.514 737.739 277.682C737.711 278.095 737.725 278.515 737.708 278.928C737.649 280.439 737.621 281.957 737.486 283.463C737.454 283.826 737.412 284.188 737.373 284.551C737.337 284.883 737.32 284.977 737.252 284.525C737.033 283.081 736.786 281.642 736.535 280.203C736.407 279.468 736.278 278.734 736.146 278C736.135 277.935 735.819 276.691 735.914 276.627C735.921 276.623 736.546 277.426 736.636 277.505C736.827 277.674 736.918 277.508 737.012 277.339C737.041 277.287 737.254 276.858 737.292 277.021C737.454 277.72 737.597 278.42 737.741 279.123C737.954 280.161 738.199 281.162 738.228 282.227C738.259 283.339 738.243 284.452 738.271 285.565C738.293 286.43 738.299 287.297 738.329 288.162C738.335 288.336 738.38 288.532 738.428 288.699C738.509 288.985 738.522 289.284 738.69 289.527C738.771 289.644 738.963 289.861 738.963 289.971" stroke="#5E5858" stroke-width="3.48837" stroke-linecap="round"/>
<path d="M897.869 332.885C893.646 333.671 889.527 331.411 885.693 329.998C884.969 329.732 884.168 329.15 883.423 329.088C880.28 328.826 877.216 327.946 874.133 327.336C869.438 326.408 865.01 324.999 860.667 322.908C855.479 320.41 849.68 318.718 844.189 316.995C837.715 314.964 831.052 313.939 824.307 313.156C814.32 311.997 804.814 308.237 795.036 306.178C792.716 305.69 790.242 304.262 787.904 304.133C786.056 304.03 784.072 303.337 782.243 302.984C779.171 302.391 776.107 301.398 773.079 300.602C767.933 299.247 762.858 297.337 757.666 296.202C755.172 295.656 752.618 296.134 750.128 295.613C748.472 295.267 746.986 294.546 745.322 294.324C743.692 294.107 744.959 291.862 744.397 290.625C744.032 289.821 744.247 288.364 744.271 287.486C744.32 285.727 744.523 283.971 744.523 282.19C744.523 281.307 744.523 280.425 744.523 279.542C744.523 278.462 746.723 279.495 747.045 280.06C748.142 281.98 749.741 283.451 751.963 283.451C752.497 283.451 752.873 283.692 753.393 283.843C754.308 284.111 755.947 283.867 756.685 284.404C757.28 284.836 758.639 284.722 759.376 285.09C760.066 285.436 760.708 285.543 761.365 285.973C762.252 286.553 763.194 287.255 764.196 287.613C765.627 288.124 767.163 288.465 768.568 289C771.669 290.181 774.914 291.135 778.068 292.138C779.788 292.686 781.465 293.553 783.168 294.044C784.011 294.287 785.008 294.505 785.886 294.548C787.149 294.612 787.221 294.875 786.124 293.778C783.912 291.565 781.15 291.436 778.32 291.27C777.454 291.219 776.652 290.813 775.798 290.765C775.466 290.747 776.464 290.787 776.792 290.835C779.814 291.28 782.817 292.145 785.802 292.797C788.417 293.368 791.718 293.521 794.209 294.605C795.013 294.954 795.829 295.432 796.717 295.543C797.449 295.635 798.167 296.012 798.847 296.314C799.351 296.538 799.794 296.461 800.318 296.622C802.044 297.153 803.901 297.475 805.699 297.575C807.398 297.669 809.498 298.471 811.206 298.85C812.242 299.08 813.456 299.306 814.582 299.537C816.105 299.848 817.521 300.039 818.926 300.742C820.503 301.53 821.899 302.852 823.48 303.642C825.773 304.789 828.175 305.485 830.668 306.15C833.364 306.869 836.004 307.969 838.739 308.728C841.359 309.456 843.994 311.756 846.726 311.951C850.43 312.216 853.734 313.68 857.389 314.221C858.465 314.381 859.603 314.62 860.667 314.852C861.215 314.971 863.964 315.238 862.083 314.669C859.104 313.769 856.025 313.347 853.087 312.456C851.245 311.896 849.329 311.383 847.454 310.942C846.455 310.707 845.465 310.348 844.442 310.228C843.809 310.153 845.647 310.642 846.263 310.802C851.866 312.255 857.66 313.361 863.358 314.347C866.005 314.805 868.529 314.775 871.134 315.426C872.965 315.884 874.915 316.118 876.711 316.617C879.771 317.467 882.661 318.546 885.763 319.321C891.441 320.741 896.928 322.701 902.465 324.618C904.928 325.471 907.82 326.308 910.031 327.7C911.461 328.601 915.717 329.34 913.646 332.002C913.002 332.83 913.178 334.437 912.693 335.407C912.127 336.54 912.245 337.721 912.245 338.994C912.245 339.73 913.123 346.476 911.853 346.476C911.283 346.476 911.632 345.415 911.348 345.131C910.934 344.717 910.153 344.982 909.779 344.683C909.147 344.177 907.875 343.922 907.075 343.744C904.876 343.255 902.922 341.712 900.643 341.712C898.703 341.712 897.009 340.053 895.095 339.947C894.166 339.895 893.253 339.427 892.306 339.19C891.451 338.977 889.854 339.007 889.294 338.307C888.952 337.881 887.437 337.891 886.884 337.425C885.942 336.632 884.703 336.019 883.633 335.407C882.162 334.567 880.494 334.441 878.897 333.95C876.158 333.107 873.312 332.486 870.504 331.862C869.535 331.647 868.62 331.176 867.603 331.119C866.281 331.046 865.102 330.182 863.82 330.111C859.446 329.868 855.445 327.814 852.092 325.206C850.745 324.158 848.239 323.593 846.557 323.287C845.241 323.047 843.852 322.6 842.578 322.236C842.151 322.114 841.178 321.681 840.757 321.802C840.08 321.995 841.637 323.089 841.849 323.161C843.51 323.725 845.086 324.099 846.768 324.436C847.829 324.648 846.337 324.39 846.039 324.324C844.169 323.908 842.218 322.368 840.476 321.535C839.862 321.242 839.355 320.772 838.711 320.582C838.091 320.4 837.285 320.404 836.721 320.148C835.863 319.758 834.994 319.57 834.059 319.518C833.851 319.506 832.28 318.972 832.462 319.153C833.589 320.281 835.371 320.398 836.721 321.031C838.653 321.937 832.622 319.842 830.584 319.209C829.442 318.855 828.287 318.744 827.123 318.383C825.487 317.875 823.296 317.685 821.827 316.869C821.009 316.415 819.353 316.54 818.422 316.491C817.362 316.435 815.74 316.058 814.751 315.608C813.665 315.115 812.171 314.979 810.995 314.669C809.907 314.383 808.803 314.101 807.745 313.717C807.35 313.573 806.979 313.006 806.568 312.96C804.217 312.699 801.979 310.858 800.066 309.681C798.916 308.974 796.921 308.42 795.596 308.42C793.84 308.42 794.507 310.126 795.849 310.424C796.293 310.523 796.885 310.69 797.334 310.69C798 310.69 796.047 310.34 795.414 310.13C794.166 309.714 792.871 309.324 791.673 308.925C791.12 308.74 790.581 308.619 790.034 308.42C789.676 308.29 788.725 308.32 788.464 308.112C787.799 307.58 786.529 306.455 785.634 306.402C785.11 306.372 784.728 306.253 784.317 305.954C783.953 305.69 783.171 305.981 782.733 305.884C781.455 305.6 779.861 305.409 778.698 304.763C777.487 304.09 775.697 304.129 774.396 303.572C773.725 303.284 772.897 302.871 772.141 302.871C771.655 302.871 770.947 303.014 770.501 302.815C769.897 302.547 769.293 302.752 768.68 302.563C768.002 302.355 767.265 302.026 766.592 301.877C765.393 301.61 764.256 301.221 763.047 300.91C761.797 300.589 760.532 300.39 759.278 300.111C758.77 299.998 758.034 299.875 757.526 299.845C756.876 299.807 756.352 299.341 755.733 299.341C755.034 299.341 754.396 298.942 753.743 298.724C753.666 298.698 752.85 298.575 753.183 298.584C754.704 298.625 756.185 298.963 757.666 299.284C763.082 300.458 768.525 301.66 773.864 303.124C777.953 304.245 782.021 305.147 786.068 306.515C788.215 307.24 790.18 308.13 792.36 308.728C793.465 309.032 794.461 309.541 795.47 310.046C796.636 310.628 798.128 311.648 799.45 311.699C800.962 311.757 802.425 311.861 803.933 311.965C812.947 312.587 821.922 313.488 830.892 314.726C836.341 315.477 841.739 316.501 847.174 317.332C852.09 318.083 857.149 318.383 862.013 319.419C867.16 320.516 872.459 321.378 877.524 322.796C879.086 323.234 880.28 324.628 881.755 325.304C884.222 326.435 887.068 327.408 889.672 328.205C894.26 329.61 898.697 331.393 903.249 332.885C904.769 333.383 906.087 334.619 906.949 335.911" stroke="#5E5858" stroke-width="11.6279"/>
<path d="M757.44 293.837C756.228 291.849 754.51 292.078 752.508 291.259C751.808 290.973 751.146 290.498 750.378 290.306" stroke="#5E5858" stroke-width="11.6279"/>
<path d="M905.237 338.731C906.875 338.561 908.429 338.331 910.029 338.731" stroke="#5E5858" stroke-width="11.6279"/>
<path d="M850.084 329.658C850.01 329.904 849.5 330.905 849.828 331.153C850.309 331.517 850.927 331 851.401 331.267C852.071 331.644 852.994 331.463 853.749 331.463C854.511 331.463 853.518 331.371 853.293 331.308C851.532 330.821 849.784 330.283 848.023 329.795C846.307 329.318 844.573 328.914 842.844 328.486C842.292 328.35 841.744 328.219 841.185 328.117C841.054 328.093 840.996 328.088 840.934 327.971C840.652 327.439 840.24 326.979 839.726 326.667C838.745 326.073 837.531 326.037 836.544 325.473" stroke="#5E5858" stroke-width="5.81395"/>
<path d="M924.081 331.868C923.669 331.418 923.523 330.963 923.515 330.357C923.512 330.205 923.419 329.555 923.724 329.853C924.215 330.333 924.586 330.825 925.162 331.228C926.484 332.152 927.867 332.434 929.463 332.434C930.862 332.434 932.21 332.256 933.587 332.146C934.635 332.062 935.483 331.855 936.409 331.343C936.755 331.152 936.975 330.923 936.419 330.923C935.15 330.923 933.889 331.112 932.621 331.112C931.762 331.112 931.155 330.709 930.355 330.493C929.839 330.354 929.274 330.363 928.75 330.268C927.766 330.089 924.749 330.262 925.749 330.262C927.082 330.262 928.414 330.266 929.747 330.262C931.104 330.258 932.412 330.071 933.76 329.979C935.16 329.884 936.519 329.562 937.584 328.657C937.764 328.504 937.972 328.33 938.172 328.206C938.483 328.013 938.617 327.733 938.953 327.571C939.557 327.281 940.223 326.961 940.774 326.58C941.105 326.35 941.494 326.316 941.812 326.108C942.288 325.797 942.609 325.392 943.019 325.022C943.765 324.347 944.493 323.814 945.138 323.013C945.527 322.529 945.848 322.005 946.219 321.528C946.437 321.248 946.46 320.985 946.46 320.631C946.46 320.288 946.743 320.269 946.743 319.876C946.743 319.735 946.721 319.538 946.628 319.424C946.467 319.228 946.442 320.332 946.439 320.379C946.283 323.342 946.366 326.32 946.366 329.287C946.366 331.493 946.366 333.7 946.366 335.907C946.366 336.979 946.177 338.021 946.177 339.086C946.177 339.679 945.957 340.225 945.589 340.691C945.117 341.29 944.797 341.773 944.194 342.276C943.824 342.584 943.493 343.004 943.082 343.251C942.811 343.413 942.578 343.493 942.353 343.718C941.923 344.148 941.486 344.532 941.057 344.961C940.706 345.312 940.087 345.721 939.945 346.22C939.832 346.616 939.242 347.035 938.911 347.217C938.343 347.53 937.801 347.954 937.185 348.182C935.974 348.631 934.744 349.257 933.576 349.809C932.379 350.374 931.287 350.771 929.941 350.842C928.266 350.93 926.566 350.847 924.889 350.847C923.632 350.847 922.374 350.847 921.117 350.847C920.603 350.847 920.21 350.844 920.21 350.239C920.21 349.271 920.231 348.3 920.189 347.333C920.102 345.368 919.689 343.481 919.423 341.541C919.23 340.142 919.31 338.589 919.365 337.182C919.397 336.379 919.563 335.581 919.69 334.79C919.84 333.857 919.881 332.915 920.357 332.077C920.599 331.65 920.992 331.134 921.416 330.871C921.618 330.746 921.643 331.304 921.647 331.333C921.857 332.703 921.89 334.099 921.904 335.482C921.934 338.524 921.799 341.55 921.731 344.589C921.707 345.639 921.72 346.691 921.72 347.742C921.72 348.028 921.651 348.456 921.741 348.749C921.88 349.199 922.491 348.715 922.686 348.55C923.958 347.466 924.241 345.724 924.322 344.154C924.428 342.135 924.107 340.414 923.536 338.498C923.219 337.438 922.753 336.115 923.053 334.999C923.158 334.61 923.39 334.128 923.756 333.908C924.12 333.69 925.025 334.06 925.235 334.386C925.8 335.26 925.58 336.777 925.634 337.743C925.755 339.912 925.852 342.279 926.536 344.353C926.718 344.903 926.931 345.464 927.292 345.927C927.649 346.387 928.234 345.653 928.493 345.381C930.249 343.532 930.152 340.92 929.841 338.561C929.681 337.347 929.161 335.967 930.198 335.005C930.431 334.788 930.617 334.906 930.733 335.162C930.98 335.706 931.032 336.308 931.111 336.893C931.285 338.199 931.481 339.499 931.536 340.817C931.603 342.449 931.629 344.078 931.772 345.706C931.811 346.152 931.661 347.033 931.924 347.427C932.152 347.77 932.697 347.407 932.873 347.222C933.747 346.307 934.016 344.981 934.206 343.776C934.42 342.412 934.459 341.084 934.468 339.705C934.473 338.946 934.681 338.242 934.751 337.491C934.76 337.402 934.862 336.405 935.129 336.71C935.335 336.945 935.364 337.395 935.417 337.68C935.573 338.515 935.699 339.357 935.811 340.198C935.979 341.466 935.902 342.769 936.094 344.028C936.128 344.248 936.196 344.323 936.377 344.426C936.905 344.728 937.568 343.947 937.909 343.65C939.316 342.427 939.32 340.962 939.278 339.222C939.252 338.116 938.951 337.038 938.911 335.933C938.879 335.035 938.906 334.131 938.906 333.232C938.906 332.685 939.354 332.003 939.572 332.917C939.937 334.444 940.016 336.015 940.228 337.565C940.272 337.89 940.268 338.684 940.653 338.855C940.917 338.972 941.056 339.128 941.372 339.128C942.515 339.128 942.765 337.129 942.903 336.337C943.126 335.063 943.155 333.756 943.155 332.466C943.155 331.575 943.206 330.823 942.83 330C942.682 329.676 942.519 328.871 942.305 328.657" stroke="#5E5858" stroke-width="5.81395"/>
<path d="M951.254 315.959C951.254 315.576 951.254 312.951 951.254 313.548C951.254 314.308 951.068 315.016 951.031 315.735C950.981 316.67 951.023 317.407 950.36 318.071C950.143 318.287 949.676 318.95 949.689 318.543C949.711 317.826 949.949 317.046 950.136 316.356C950.586 314.697 950.545 312.977 951.08 311.312C951.715 309.336 952.828 307.435 953.664 305.448C954.444 303.597 954.385 300.675 954.385 298.69C954.385 297.11 954.778 295.576 954.832 293.993C954.863 293.103 955.255 292.251 955.279 291.36C955.299 290.628 955.335 289.776 955.553 289.074C955.957 287.771 956.349 286.436 956.795 285.148C956.952 284.696 957.151 284.185 957.342 283.756C957.697 282.957 957.226 285.9 957.168 286.191C956.979 287.135 956.955 288.027 956.671 288.949C956.494 289.526 956.204 290.317 956.174 290.912C956.111 292.175 956.349 290.515 956.447 290.092C956.793 288.612 957.493 287.25 957.789 285.769C958.372 282.853 959.528 280.235 959.528 277.222C959.528 272.327 961.55 268.297 962.932 263.804C963.489 261.994 963.651 259.956 964.498 258.263C965.393 256.472 966.014 253.984 966.014 252.002C966.014 251.115 966.394 250.356 966.461 249.492C966.525 248.654 966.71 247.488 966.958 246.684C967.289 245.607 967.302 244.295 967.753 243.28C968.087 242.528 968.502 241.873 968.871 241.044C969.634 239.327 969.815 237.511 969.815 235.453C969.815 233.845 970.486 232.229 970.486 230.633C970.486 229.699 971.225 228.89 971.368 227.962C971.533 226.89 972.051 225.71 972.051 224.632C972.051 222.99 973.17 221.319 973.17 219.7C973.17 218.788 973.69 217.89 973.853 216.992C974.054 215.883 974.588 214.879 974.747 213.762C974.984 212.108 976.524 210.395 976.524 208.73C976.524 208.19 976.891 208.197 976.959 207.724C977.027 207.248 977.103 206.738 977.207 206.27C977.455 205.157 977.925 204.066 978.102 202.916C978.292 201.68 978.595 200.437 978.748 199.213C978.849 198.407 978.473 197.148 978.872 196.431C979.158 195.916 979.431 194.322 979.431 193.747C979.431 192.346 980.021 190.756 980.326 189.386C980.834 187.099 981.247 184.483 982.226 182.33C982.76 181.155 983.086 179.543 983.456 178.292C983.774 177.221 984.648 176.184 984.786 175.087C984.857 174.512 984.986 173.858 985.345 173.397C986.209 172.286 986.064 170.116 986.475 168.8C987.579 165.269 987.371 161.541 988.165 157.967C988.419 156.825 989.491 156.026 989.705 154.849C989.866 153.966 990.008 152.914 990.277 152.053C990.859 150.189 991.06 148.053 991.06 146.115C991.06 145.327 991.507 144.631 991.507 143.878C991.507 143.096 991.507 142.313 991.507 141.53C991.507 139.965 991.507 138.4 991.507 136.834" stroke="#484848" stroke-width="5.81395"/>
<path d="M921.182 332.935C921.182 331.266 920.811 329.914 922.019 328.815C922.211 328.641 923.265 329.168 923.562 329.168C924.809 329.168 926.041 329.248 927.285 329.366C929.877 329.613 932.444 329.564 935.051 329.564C936.218 329.564 937.528 329.379 938.664 329.663C939.116 329.776 940.796 329.732 941.01 330.159" stroke="#5E5858" stroke-width="5.81395"/>
<path d="M731.628 284.302C733.185 294.622 736.786 297.839 744.07 302.326" stroke="#797979" stroke-width="4.65116"/>
<path d="M919.186 354.884C937.983 355.916 943.435 351.972 949.07 340.116" stroke="#797979" stroke-width="4.65116"/>
<path d="M731.628 255.814V284.884" stroke="#797979" stroke-width="4.65116"/>
<path d="M744.186 275.581V302.326L918.605 354.651V325.581" stroke="#797979" stroke-width="4.65116"/>
<path d="M948.837 311.628V340.777L993.867 152.496C994.079 151.61 994.186 150.703 994.186 149.792L994.186 122.093" stroke="#797979" stroke-width="4.65116"/>
<path d="M950.4 311.364C950.351 311.49 950.309 311.595 950.309 311.728" stroke="#797979" stroke-width="1.16279" stroke-linecap="round"/>
<path d="M950.4 312.364C950.4 311.811 950.546 311.292 950.448 310.749C950.377 310.358 950.4 309.938 950.4 309.538C950.4 308.929 950.4 308.32 950.4 307.711C950.4 307.514 950.4 307.317 950.4 307.12C950.4 307.013 950.4 306.906 950.4 306.8C950.4 306.75 950.4 307.065 950.4 307.14" stroke="#797979" stroke-width="1.16279" stroke-linecap="round"/>
<path d="M920.558 356.877C920.829 356.883 921.029 357.013 921.295 357.013C921.372 357.013 921.601 356.994 921.527 357.016C921.484 357.028 921.247 357.058 921.365 357.058C921.472 357.058 922.099 357.104 921.719 357.104C921.617 357.104 921.2 357.104 921.264 357.104C921.355 357.104 921.634 357.149 921.385 357.149C921.284 357.149 921.182 357.149 921.08 357.149C920.908 357.149 921.066 357.149 921.148 357.149C921.3 357.149 921.451 357.149 921.602 357.149C921.732 357.149 922.121 357.149 921.991 357.149C921.854 357.149 921.717 357.149 921.58 357.149C921.355 357.149 920.683 357.127 920.906 357.149C921.423 357.201 921.943 357.195 922.465 357.195C922.948 357.195 923.414 357.058 923.896 357.058C924.383 357.058 924.845 356.922 925.327 356.922C925.579 356.922 925.847 356.857 926.099 356.829C926.298 356.807 926.475 356.748 926.68 356.741C926.876 356.734 927.031 356.604 927.235 356.604" stroke="#797979" stroke-width="1.16279" stroke-linecap="round"/>
<path d="M729.924 256.314C729.924 256.065 729.921 255.542 730.08 255.337C730.147 255.252 730.196 255.035 730.196 254.928C730.196 254.802 730.287 254.688 730.287 254.562C730.287 254.424 730.333 254.141 730.401 254.02C730.472 253.892 730.439 253.663 730.537 253.545C730.599 253.471 730.605 253.176 730.605 253.066C730.605 252.921 730.658 252.665 730.698 252.523C730.783 252.227 730.825 251.871 730.958 251.59C731.114 251.261 731.423 250.877 731.423 250.5C731.423 250.183 731.586 249.774 731.73 249.5C731.88 249.216 731.965 248.92 732.159 248.647C732.306 248.441 732.452 248.236 732.599 248.029C732.685 247.908 732.83 247.777 732.876 247.638" stroke="#797979" stroke-width="1.16279" stroke-linecap="round"/>
<path d="M995.38 122.919V122.657" stroke="#797979" stroke-width="1.16279" stroke-linecap="round"/>
<path d="M995.955 122.657C995.769 122.219 995.746 121.832 995.746 121.351C995.746 120.991 995.589 120.628 995.589 120.282C995.589 120.077 995.572 119.824 995.511 119.629C995.472 119.505 995.437 119.389 995.403 119.263C995.369 119.137 995.253 119.042 995.226 118.92C995.175 118.691 995.033 118.487 994.939 118.27C994.862 118.095 994.87 117.874 994.794 117.692C994.718 117.512 994.741 117.3 994.66 117.117C994.605 116.994 994.554 116.768 994.544 116.635C994.513 116.255 994.207 115.904 994.021 115.578C993.928 115.416 993.747 115.305 993.632 115.157C993.522 115.016 993.456 114.839 993.388 114.687C993.22 114.309 992.679 114.171 992.505 113.825" stroke="#797979" stroke-width="1.16279" stroke-linecap="round"/>
<path d="M995.276 122.971C995.101 122.403 994.777 121.904 994.576 121.348C994.387 120.824 994.218 120.269 994.074 119.731" stroke="#797979" stroke-width="1.16279" stroke-linecap="round"/>
<path d="M994.91 120.724C994.964 121.296 994.924 121.847 994.91 122.419C994.907 122.53 994.922 122.848 994.87 122.75C994.818 122.654 994.858 122.45 994.858 122.344" stroke="#797979" stroke-width="1.16279" stroke-linecap="round"/>
<path d="M914.612 327.551C914.102 327.651 913.63 327.665 913.112 327.665C912.916 327.665 912.55 327.653 912.376 327.75C912.11 327.897 911.539 327.778 911.24 327.778C909.683 327.778 908.257 327.624 906.76 327.186C906.231 327.032 905.665 327.053 905.143 326.872C904.468 326.638 903.75 326.515 903.066 326.306C902.087 326.005 901.127 325.635 900.137 325.374C899.273 325.147 898.115 324.971 897.403 324.412C897.326 324.351 896.746 323.697 896.9 323.543C897.042 323.401 897.442 323.697 897.567 323.77C897.817 323.917 898.027 323.927 898.322 323.927C898.449 323.927 898.042 323.974 897.941 323.896C897.727 323.729 898.311 323.593 898.366 323.59C899.399 323.539 900.525 323.751 901.531 323.996C901.977 324.105 902.449 324.149 902.909 324.154C904.207 324.167 905.506 324.436 906.772 324.707C908.129 324.998 909.492 325.257 910.834 325.601C911.685 325.819 912.537 325.868 913.411 325.906C913.752 325.921 914.068 325.987 914.386 326.11C914.478 326.146 914.763 326.198 914.826 326.262C914.959 326.394 914.454 326.312 914.266 326.318C913.675 326.337 913.084 326.362 912.492 326.362C911.941 326.362 911.388 326.369 910.837 326.362C909.762 326.348 908.714 326.185 907.647 326.092C906.941 326.03 906.222 326.095 905.514 326.066C904.997 326.046 904.482 325.99 903.966 325.966" stroke="#5F5D5D" stroke-width="2.32558" stroke-linecap="round"/>
<path d="M747.322 277.834C747.322 278.439 747.322 279.045 747.322 279.65C747.322 279.714 747.42 279.205 747.496 279.184C747.587 279.158 748.049 279.387 748.212 279.408C748.445 279.437 748.596 279.589 748.834 279.457C749.074 279.324 749.457 279.401 749.723 279.401C750.001 279.401 750.51 279.497 749.935 279.377C749.61 279.308 749.289 279.27 748.958 279.233C748.272 279.157 748.81 279.177 749.126 279.252C749.758 279.401 750.533 279.573 751.129 279.824C752.201 280.276 753.315 280.705 754.42 281.137C756.339 281.888 758.39 282.174 760.336 282.848C760.7 282.974 761.026 283.157 761.362 283.345C762.449 283.953 763.585 284.392 764.765 284.788C766.24 285.284 767.751 285.67 769.256 286.057C770.675 286.422 772.042 287.084 773.436 287.538C774.428 287.86 775.184 288.373 776.111 288.844C778.747 290.183 781.495 291.075 784.204 292.203C784.406 292.288 784.57 292.414 784.783 292.477C784.926 292.519 785.897 292.854 785.505 292.863C783.586 292.909 781.548 292.325 779.726 291.793C778.854 291.539 778.077 291.122 777.219 290.847C775.789 290.391 774.387 289.9 773.001 289.33C771.198 288.587 769.409 287.84 767.614 287.065C765.62 286.204 763.303 286.145 761.244 285.498C759.439 284.93 757.638 284.354 755.851 283.731C755.347 283.555 754.889 283.298 754.364 283.152C753.367 282.876 752.387 282.542 751.378 282.313C750.695 282.157 749.458 282.105 748.915 281.616C748.573 281.308 748.94 280.658 748.442 280.409" stroke="#5F5D5D" stroke-width="2.32558" stroke-linecap="round"/>
<path d="M749.786 280.969L751.129 281.305" stroke="#5F5D5D" stroke-width="2.32558" stroke-linecap="round"/>
<path d="M837.333 70.3041L976.454 101.718C987.852 104.292 994.935 115.699 992.187 127.056L947.921 310.044C945.122 321.614 933.251 328.523 921.809 325.242L748.034 275.413C735.579 271.842 729.328 257.927 734.931 246.244L813.851 81.6701C818.071 72.8698 827.813 68.1543 837.333 70.3041Z" fill="#CCCCCC" stroke="#797979" stroke-width="4.65116"/>
<path d="M858.972 250.35L905.472 144.368L904.332 144.02L848.824 145.957L841.095 163.572L873.285 162.515L837.612 243.821L858.972 250.35Z" fill="#C12A2A"/>
<path d="M858.972 250.35L858.038 252.479L860.262 253.159L861.196 251.03L858.972 250.35ZM905.472 144.368L907.696 145.048L908.63 142.918L906.406 142.238L905.472 144.368ZM904.332 144.02L905.266 141.89L904.877 141.771L904.455 141.786L904.332 144.02ZM848.824 145.957L848.947 143.723L847.256 143.782L846.6 145.277L848.824 145.957ZM841.095 163.572L838.871 162.893L837.544 165.919L840.967 165.806L841.095 163.572ZM873.285 162.515L875.509 163.194L876.837 160.168L873.414 160.281L873.285 162.515ZM837.612 243.821L835.388 243.141L834.453 245.27L836.677 245.95L837.612 243.821ZM861.196 251.03L907.696 145.048L903.248 143.688L856.748 249.67L861.196 251.03ZM906.406 142.238L905.266 141.89L903.397 146.149L904.538 146.498L906.406 142.238ZM904.455 141.786L848.947 143.723L848.701 148.191L904.208 146.253L904.455 141.786ZM846.6 145.277L838.871 162.893L843.319 164.252L851.048 146.637L846.6 145.277ZM840.967 165.806L873.156 164.749L873.414 160.281L841.224 161.338L840.967 165.806ZM871.061 161.835L835.388 243.141L839.836 244.5L875.509 163.194L871.061 161.835ZM836.677 245.95L858.038 252.479L859.906 248.22L838.546 241.691L836.677 245.95Z" fill="#D79191"/>
<path d="M163.654 124.803V93.5988H3.67914V124.803H64.0443V292H102.471V124.803H163.654ZM163.414 144.562V175.494H205.383V261.204H163.414V292H283.599V261.204H243.674V144.562H163.414ZM202.658 106.816C202.658 109.723 203.158 112.449 204.157 114.992C205.247 117.445 206.746 119.535 208.654 121.261C210.561 123.077 212.832 124.485 215.467 125.485C218.192 126.484 221.19 126.984 224.46 126.984C231.183 126.984 236.497 125.121 240.403 121.397C244.4 117.581 246.399 112.721 246.399 106.816C246.399 100.912 244.4 96.097 240.403 92.3725C236.497 88.5571 231.183 86.6493 224.46 86.6493C221.19 86.6493 218.192 87.149 215.467 88.1483C212.832 89.1475 210.561 90.5102 208.654 92.2362C206.746 94.0531 205.247 96.2333 204.157 98.7769C203.158 101.23 202.658 103.91 202.658 106.816ZM356.942 108.452H319.061V144.562H285.403V172.496H319.061V239.538C319.061 249.258 320.332 257.616 322.876 264.611C325.42 271.515 329.053 277.193 333.777 281.644C338.41 286.186 343.997 289.547 350.538 291.727C357.169 293.817 364.528 294.862 372.613 294.862C376.791 294.862 381.016 294.634 385.285 294.18C389.646 293.817 393.824 293.272 397.822 292.545C401.819 291.818 405.589 290.91 409.132 289.82C412.674 288.639 415.763 287.276 418.398 285.732L414.718 259.705C412.992 260.16 410.903 260.614 408.45 261.068C406.088 261.522 403.545 261.931 400.819 262.294C398.003 262.749 395.051 263.112 391.962 263.384C388.964 263.657 386.012 263.793 383.105 263.793C379.108 263.793 375.474 263.339 372.204 262.431C369.024 261.522 366.299 259.978 364.028 257.798C361.757 255.708 359.985 252.892 358.714 249.349C357.533 245.715 356.942 241.219 356.942 235.859V172.496H411.993V144.562H356.942V108.452ZM429.468 82.6977V113.63H473.617V261.204H429.468V292H554.15V261.204H511.908V82.6977H429.468ZM627.22 294.725C641.483 294.725 653.837 291.955 664.284 286.413C674.731 280.872 682.362 274.694 687.177 267.881L668.236 247.441C663.875 253.074 658.198 257.298 651.203 260.114C644.208 262.93 636.986 264.338 629.537 264.338C624.268 264.338 619.408 263.521 614.956 261.886C610.505 260.25 606.553 257.934 603.101 254.936C599.74 252.029 597.06 248.804 595.062 245.261C593.063 241.628 591.428 236.858 590.156 230.953V230.545H690.174V214.465C690.174 203.655 688.676 193.799 685.678 184.896C682.68 175.903 678.319 168.226 672.596 161.867C666.782 155.508 659.697 150.603 651.339 147.151C643.072 143.608 633.625 141.836 622.996 141.836C612.731 141.836 603.238 143.699 594.517 147.423C585.796 151.148 578.256 156.371 571.897 163.094C565.538 169.816 560.587 177.856 557.044 187.213C553.501 196.479 551.73 206.744 551.73 218.008V223.459C551.73 233.361 553.501 242.672 557.044 251.393C560.678 260.023 565.81 267.518 572.442 273.877C579.073 280.327 587.022 285.414 596.288 289.138C605.554 292.863 615.865 294.725 627.22 294.725ZM622.723 172.496C627.538 172.496 631.762 173.268 635.396 174.813C639.121 176.266 642.255 178.265 644.798 180.808C647.342 183.443 649.34 186.531 650.794 190.074C652.247 193.617 652.974 197.387 652.974 201.384V204.382H590.838C591.746 199.567 593.109 195.207 594.926 191.301C596.742 187.394 599.013 184.033 601.739 181.217C604.373 178.401 607.462 176.266 611.005 174.813C614.548 173.268 618.454 172.496 622.723 172.496Z" fill="#CCCCCC"/>
<path d="M163.654 124.803V129.455H168.305V124.803H163.654ZM163.654 93.5988H168.305V88.9477H163.654V93.5988ZM3.67914 93.5988V88.9477H-0.97202V93.5988H3.67914ZM3.67914 124.803H-0.97202V129.455H3.67914V124.803ZM64.0443 124.803H68.6955V120.152H64.0443V124.803ZM64.0443 292H59.3932V296.651H64.0443V292ZM102.471 292V296.651H107.122V292H102.471ZM102.471 124.803V120.152H97.8198V124.803H102.471ZM168.305 124.803V93.5988H159.003V124.803H168.305ZM163.654 88.9477H3.67914V98.25H163.654V88.9477ZM-0.97202 93.5988V124.803H8.33031V93.5988H-0.97202ZM3.67914 129.455H64.0443V120.152H3.67914V129.455ZM59.3932 124.803V292H68.6955V124.803H59.3932ZM64.0443 296.651H102.471V287.349H64.0443V296.651ZM107.122 292V124.803H97.8198V292H107.122ZM102.471 129.455H163.654V120.152H102.471V129.455ZM163.414 144.562V139.911H158.763V144.562H163.414ZM163.414 175.494H158.763V180.145H163.414V175.494ZM205.383 175.494H210.035V170.843H205.383V175.494ZM205.383 261.204V265.855H210.035V261.204H205.383ZM163.414 261.204V256.553H158.763V261.204H163.414ZM163.414 292H158.763V296.651H163.414V292ZM283.599 292V296.651H288.25V292H283.599ZM283.599 261.204H288.25V256.553H283.599V261.204ZM243.674 261.204H239.023V265.855H243.674V261.204ZM243.674 144.562H248.325V139.911H243.674V144.562ZM204.157 114.992L199.828 116.693L199.865 116.788L199.907 116.881L204.157 114.992ZM208.654 121.261L211.861 117.892L211.818 117.851L211.774 117.812L208.654 121.261ZM215.467 125.485L213.817 129.834L213.842 129.843L213.866 129.852L215.467 125.485ZM240.403 121.397L243.613 124.763L243.615 124.761L240.403 121.397ZM240.403 92.3725L237.153 95.6998L237.193 95.738L237.233 95.7753L240.403 92.3725ZM215.467 88.1483L213.866 83.7814L213.842 83.7903L213.817 83.7994L215.467 88.1483ZM208.654 92.2362L205.533 88.7872L205.489 88.8271L205.446 88.8681L208.654 92.2362ZM204.157 98.7769L199.882 96.9447L199.865 96.9832L199.85 97.022L204.157 98.7769ZM158.763 144.562V175.494H168.065V144.562H158.763ZM163.414 180.145H205.383V170.843H163.414V180.145ZM200.732 175.494V261.204H210.035V175.494H200.732ZM205.383 256.553H163.414V265.855H205.383V256.553ZM158.763 261.204V292H168.065V261.204H158.763ZM163.414 296.651H283.599V287.349H163.414V296.651ZM288.25 292V261.204H278.948V292H288.25ZM283.599 256.553H243.674V265.855H283.599V256.553ZM248.325 261.204V144.562H239.023V261.204H248.325ZM243.674 139.911H163.414V149.213H243.674V139.911ZM198.007 106.816C198.007 110.268 198.603 113.574 199.828 116.693L208.486 113.292C207.713 111.324 207.309 109.179 207.309 106.816H198.007ZM199.907 116.881C201.249 119.901 203.123 122.529 205.533 124.71L211.774 117.812C210.369 116.54 209.245 114.989 208.407 113.103L199.907 116.881ZM205.446 124.629C207.833 126.902 210.644 128.63 213.817 129.834L217.116 121.136C215.021 120.341 213.29 119.253 211.861 117.892L205.446 124.629ZM213.866 129.852C217.165 131.061 220.712 131.635 224.46 131.635V122.332C221.668 122.332 219.22 121.907 217.068 121.118L213.866 129.852ZM224.46 131.635C232.07 131.635 238.642 129.503 243.613 124.763L237.194 118.031C234.352 120.74 230.296 122.332 224.46 122.332V131.635ZM243.615 124.761C248.599 120.003 251.05 113.895 251.05 106.816H241.748C241.748 111.547 240.201 115.16 237.192 118.032L243.615 124.761ZM251.05 106.816C251.05 99.7376 248.597 93.6503 243.574 88.9696L237.233 95.7753C240.204 98.5437 241.748 102.086 241.748 106.816H251.05ZM243.653 89.0451C238.687 84.194 232.1 81.9982 224.46 81.9982V91.3005C230.265 91.3005 234.308 92.9201 237.153 95.6998L243.653 89.0451ZM224.46 81.9982C220.712 81.9982 217.165 82.5718 213.866 83.7814L217.068 92.5151C219.22 91.7262 221.668 91.3005 224.46 91.3005V81.9982ZM213.817 83.7994C210.693 84.9847 207.91 86.6367 205.533 88.7872L211.774 95.6852C213.213 94.3837 214.972 93.3103 217.116 92.4971L213.817 83.7994ZM205.446 88.8681C203.059 91.1412 201.207 93.8519 199.882 96.9447L208.432 100.609C209.287 98.6147 210.433 96.965 211.861 95.6043L205.446 88.8681ZM199.85 97.022C198.602 100.084 198.007 103.367 198.007 106.816H207.309C207.309 104.452 207.713 102.375 208.464 100.532L199.85 97.022ZM356.942 108.452H361.593V103.801H356.942V108.452ZM319.061 108.452V103.801H314.41V108.452H319.061ZM319.061 144.562V149.213H323.712V144.562H319.061ZM285.403 144.562V139.911H280.752V144.562H285.403ZM285.403 172.496H280.752V177.147H285.403V172.496ZM319.061 172.496H323.712V167.845H319.061V172.496ZM322.876 264.611L318.505 266.2L318.508 266.21L318.512 266.219L322.876 264.611ZM333.777 281.644L337.033 278.323L337.001 278.29L336.967 278.259L333.777 281.644ZM350.538 291.727L349.067 296.14L349.103 296.152L349.14 296.164L350.538 291.727ZM385.285 294.18L384.899 289.545L384.846 289.55L384.793 289.555L385.285 294.18ZM409.132 289.82L410.499 294.265L410.551 294.249L410.602 294.232L409.132 289.82ZM418.398 285.732L420.75 289.744L423.439 288.168L423.003 285.081L418.398 285.732ZM414.718 259.705L419.324 259.054L418.592 253.876L413.535 255.207L414.718 259.705ZM408.45 261.068L407.603 256.495L407.588 256.497L407.572 256.5L408.45 261.068ZM400.819 262.294L400.205 257.684L400.142 257.692L400.079 257.703L400.819 262.294ZM391.962 263.384L391.553 258.751L391.541 258.752L391.962 263.384ZM372.204 262.431L370.926 266.903L370.943 266.907L370.959 266.912L372.204 262.431ZM364.028 257.798L367.249 254.442L367.213 254.408L367.177 254.375L364.028 257.798ZM358.714 249.349L354.29 250.787L354.312 250.854L354.336 250.921L358.714 249.349ZM356.942 172.496V167.845H352.291V172.496H356.942ZM411.993 172.496V177.147H416.644V172.496H411.993ZM411.993 144.562H416.644V139.911H411.993V144.562ZM356.942 144.562H352.291V149.213H356.942V144.562ZM356.942 103.801H319.061V113.103H356.942V103.801ZM314.41 108.452V144.562H323.712V108.452H314.41ZM319.061 139.911H285.403V149.213H319.061V139.911ZM280.752 144.562V172.496H290.055V144.562H280.752ZM285.403 177.147H319.061V167.845H285.403V177.147ZM314.41 172.496V239.538H323.712V172.496H314.41ZM314.41 239.538C314.41 249.644 315.729 258.567 318.505 266.2L327.247 263.021C324.936 256.665 323.712 248.873 323.712 239.538H314.41ZM318.512 266.219C321.271 273.707 325.274 280.022 330.587 285.029L336.967 278.259C332.833 274.363 329.569 269.322 327.24 263.003L318.512 266.219ZM330.521 284.965C335.69 290.033 341.899 293.751 349.067 296.14L352.009 287.315C346.095 285.344 341.131 282.339 337.033 278.323L330.521 284.965ZM349.14 296.164C356.291 298.417 364.129 299.513 372.613 299.513V290.21C364.926 290.21 358.048 289.217 351.935 287.291L349.14 296.164ZM372.613 299.513C376.96 299.513 381.349 299.276 385.777 298.805L384.793 289.555C380.683 289.992 376.623 290.21 372.613 290.21V299.513ZM385.672 298.815C390.17 298.44 394.498 297.877 398.654 297.121L396.99 287.969C393.151 288.667 389.121 289.193 384.899 289.545L385.672 298.815ZM398.654 297.121C402.815 296.365 406.765 295.414 410.499 294.265L407.764 285.374C404.412 286.405 400.823 287.272 396.99 287.969L398.654 297.121ZM410.602 294.232C414.387 292.971 417.783 291.484 420.75 289.744L416.045 281.719C413.744 283.069 410.962 284.307 407.661 285.407L410.602 294.232ZM423.003 285.081L419.324 259.054L410.113 260.356L413.792 286.383L423.003 285.081ZM413.535 255.207C411.954 255.623 409.984 256.054 407.603 256.495L409.297 265.641C411.822 265.174 414.031 264.696 415.902 264.203L413.535 255.207ZM407.572 256.5C405.309 256.936 402.854 257.331 400.205 257.684L401.434 266.905C404.235 266.531 406.868 266.109 409.329 265.635L407.572 256.5ZM400.079 257.703C397.382 258.138 394.54 258.488 391.553 258.751L392.371 268.018C395.561 267.736 398.625 267.36 401.56 266.886L400.079 257.703ZM391.541 258.752C388.678 259.013 385.867 259.142 383.105 259.142V268.444C386.157 268.444 389.25 268.301 392.383 268.017L391.541 258.752ZM383.105 259.142C379.456 259.142 376.249 258.727 373.449 257.949L370.959 266.912C374.699 267.951 378.76 268.444 383.105 268.444V259.142ZM373.482 257.958C370.993 257.247 368.945 256.071 367.249 254.442L360.807 261.153C363.653 263.885 367.055 265.797 370.926 266.903L373.482 257.958ZM367.177 254.375C365.568 252.894 364.164 250.767 363.091 247.778L354.336 250.921C355.807 255.017 357.946 258.522 360.879 261.221L367.177 254.375ZM363.137 247.912C362.154 244.887 361.593 240.911 361.593 235.859H352.291C352.291 241.526 352.911 246.544 354.29 250.787L363.137 247.912ZM361.593 235.859V172.496H352.291V235.859H361.593ZM356.942 177.147H411.993V167.845H356.942V177.147ZM416.644 172.496V144.562H407.342V172.496H416.644ZM411.993 139.911H356.942V149.213H411.993V139.911ZM361.593 144.562V108.452H352.291V144.562H361.593ZM429.468 82.6977V78.0465H424.816V82.6977H429.468ZM429.468 113.63H424.816V118.281H429.468V113.63ZM473.617 113.63H478.269V108.979H473.617V113.63ZM473.617 261.204V265.855H478.269V261.204H473.617ZM429.468 261.204V256.553H424.816V261.204H429.468ZM429.468 292H424.816V296.651H429.468V292ZM554.15 292V296.651H558.801V292H554.15ZM554.15 261.204H558.801V256.553H554.15V261.204ZM511.908 261.204H507.257V265.855H511.908V261.204ZM511.908 82.6977H516.559V78.0465H511.908V82.6977ZM424.816 82.6977V113.63H434.119V82.6977H424.816ZM429.468 118.281H473.617V108.979H429.468V118.281ZM468.966 113.63V261.204H478.269V113.63H468.966ZM473.617 256.553H429.468V265.855H473.617V256.553ZM424.816 261.204V292H434.119V261.204H424.816ZM429.468 296.651H554.15V287.349H429.468V296.651ZM558.801 292V261.204H549.499V292H558.801ZM554.15 256.553H511.908V265.855H554.15V256.553ZM516.559 261.204V82.6977H507.257V261.204H516.559ZM511.908 78.0465H429.468V87.3488H511.908V78.0465ZM664.284 286.413L662.105 282.304L664.284 286.413ZM687.177 267.881L690.975 270.565L693.151 267.486L690.588 264.72L687.177 267.881ZM668.236 247.441L671.647 244.28L667.917 240.255L664.558 244.594L668.236 247.441ZM603.101 254.936L606.151 251.424L606.144 251.418L603.101 254.936ZM595.062 245.261L590.986 247.503L590.998 247.525L591.011 247.546L595.062 245.261ZM590.156 230.953H585.505V231.449L585.609 231.933L590.156 230.953ZM590.156 230.545V225.894H585.505V230.545H590.156ZM690.174 230.545V235.196H694.826V230.545H690.174ZM685.678 184.896L681.265 186.367L681.267 186.374L681.27 186.38L685.678 184.896ZM672.596 161.867L676.053 158.756L676.041 158.742L676.029 158.729L672.596 161.867ZM651.339 147.151L649.507 151.426L649.535 151.438L649.563 151.45L651.339 147.151ZM557.044 187.213L561.388 188.874L561.391 188.867L561.394 188.86L557.044 187.213ZM557.044 251.393L552.735 253.144L552.746 253.171L552.757 253.198L557.044 251.393ZM572.442 273.877L575.685 270.543L575.673 270.531L575.661 270.52L572.442 273.877ZM635.396 174.813L633.577 179.093L633.641 179.12L633.705 179.145L635.396 174.813ZM644.798 180.808L648.144 177.577L648.116 177.548L648.087 177.519L644.798 180.808ZM652.974 204.382V209.033H657.625V204.382H652.974ZM590.838 204.382L586.267 203.52L585.227 209.033H590.838V204.382ZM601.739 181.217L605.081 184.451L605.108 184.423L605.135 184.394L601.739 181.217ZM611.005 174.813L612.77 179.116L612.817 179.096L612.863 179.076L611.005 174.813ZM627.22 299.376C642.087 299.376 655.22 296.486 666.464 290.522L662.105 282.304C652.454 287.423 640.878 290.074 627.22 290.074V299.376ZM666.464 290.522C677.303 284.773 685.602 278.169 690.975 270.565L683.378 265.197C679.122 271.219 672.159 276.971 662.105 282.304L666.464 290.522ZM690.588 264.72L671.647 244.28L664.824 250.603L683.765 271.043L690.588 264.72ZM664.558 244.594C660.733 249.535 655.742 253.273 649.466 255.799L652.94 264.429C660.654 261.323 667.018 256.612 671.914 250.289L664.558 244.594ZM649.466 255.799C643.016 258.396 636.383 259.687 629.537 259.687V268.989C637.588 268.989 645.4 267.464 652.94 264.429L649.466 255.799ZM629.537 259.687C624.755 259.687 620.444 258.946 616.56 257.52L613.353 266.251C618.371 268.095 623.781 268.989 629.537 268.989V259.687ZM616.56 257.52C612.619 256.072 609.161 254.038 606.151 251.424L600.052 258.448C603.946 261.829 608.392 264.429 613.353 266.251L616.56 257.52ZM606.144 251.418C603.15 248.829 600.825 246.012 599.113 242.976L591.011 247.546C593.295 251.596 596.33 255.229 600.059 258.454L606.144 251.418ZM599.137 243.02C597.431 239.917 595.919 235.62 594.703 229.974L585.609 231.933C586.937 238.097 588.696 243.338 590.986 247.503L599.137 243.02ZM594.807 230.953V230.545H585.505V230.953H594.807ZM590.156 235.196H690.174V225.894H590.156V235.196ZM694.826 230.545V214.465H685.523V230.545H694.826ZM694.826 214.465C694.826 203.225 693.267 192.859 690.086 183.412L681.27 186.38C684.084 194.739 685.523 204.085 685.523 214.465H694.826ZM690.09 183.425C686.912 173.891 682.249 165.639 676.053 158.756L669.139 164.979C674.39 170.813 678.448 177.914 681.265 186.367L690.09 183.425ZM676.029 158.729C669.732 151.841 662.071 146.551 653.115 142.852L649.563 151.45C657.322 154.654 663.833 159.175 669.164 165.006L676.029 158.729ZM653.171 142.876C644.23 139.044 634.142 137.185 622.996 137.185V146.488C633.107 146.488 641.914 148.172 649.507 151.426L653.171 142.876ZM622.996 137.185C612.155 137.185 602.035 139.155 592.69 143.146L596.344 151.701C604.441 148.243 613.306 146.488 622.996 146.488V137.185ZM592.69 143.146C583.398 147.114 575.326 152.701 568.518 159.897L575.276 166.29C581.186 160.042 588.194 155.181 596.344 151.701L592.69 143.146ZM568.518 159.897C561.703 167.102 556.437 175.68 552.694 185.566L561.394 188.86C564.737 180.031 569.373 172.53 575.276 166.29L568.518 159.897ZM552.7 185.551C548.928 195.415 547.078 206.252 547.078 218.008H556.381C556.381 207.235 558.074 197.542 561.388 188.874L552.7 185.551ZM547.078 218.008V223.459H556.381V218.008H547.078ZM547.078 223.459C547.078 233.929 548.954 243.838 552.735 253.144L561.353 249.643C558.048 241.506 556.381 232.792 556.381 223.459H547.078ZM552.757 253.198C556.632 262.401 562.124 270.427 569.223 277.234L575.661 270.52C569.496 264.608 564.723 257.645 561.331 249.588L552.757 253.198ZM569.199 277.211C576.298 284.116 584.771 289.522 594.553 293.454L598.023 284.823C589.274 281.306 581.849 276.538 575.685 270.543L569.199 277.211ZM594.553 293.454C604.441 297.429 615.351 299.376 627.22 299.376V290.074C616.378 290.074 606.667 288.297 598.023 284.823L594.553 293.454ZM622.723 177.147C627.047 177.147 630.63 177.841 633.577 179.093L637.215 170.532C632.895 168.696 628.03 167.845 622.723 167.845V177.147ZM633.705 179.145C636.898 180.391 639.469 182.056 641.509 184.097L648.087 177.519C645.041 174.473 641.344 172.141 637.087 170.48L633.705 179.145ZM641.452 184.039C643.568 186.231 645.25 188.816 646.491 191.84L655.097 188.309C653.431 184.247 651.115 180.655 648.144 177.577L641.452 184.039ZM646.491 191.84C647.704 194.798 648.323 197.966 648.323 201.384H657.625C657.625 196.808 656.79 192.436 655.097 188.309L646.491 191.84ZM648.323 201.384V204.382H657.625V201.384H648.323ZM652.974 199.731H590.838V209.033H652.974V199.731ZM595.408 205.244C596.254 200.758 597.509 196.774 599.143 193.262L590.708 189.339C588.708 193.64 587.237 198.376 586.267 203.52L595.408 205.244ZM599.143 193.262C600.763 189.779 602.75 186.86 605.081 184.451L598.396 177.982C595.277 181.206 592.722 185.009 590.708 189.339L599.143 193.262ZM605.135 184.394C607.317 182.063 609.85 180.314 612.77 179.116L609.239 170.509C605.074 172.218 601.43 174.739 598.342 178.039L605.135 184.394ZM612.863 179.076C615.761 177.813 619.026 177.147 622.723 177.147V167.845C617.882 167.845 613.334 168.723 609.146 170.549L612.863 179.076Z" fill="#797979"/>
</svg>
