<svg width="609" height="450" viewBox="0 0 609 450" fill="none" xmlns="http://www.w3.org/2000/svg">
<rect x="17.4041" y="17.4041" width="573.639" height="350.17" rx="31.3274" stroke="#CCCCCC" stroke-width="34.8082"/>
<path d="M307.303 378.295L307.3 378.293C305.258 377.37 302.913 377.368 300.865 378.295C300.864 378.295 300.863 378.296 300.862 378.296C300.861 378.296 300.861 378.296 300.861 378.296L193.843 426.724L193.842 426.724C186.189 430.188 188.654 441.646 197.062 441.646H411.107C419.506 441.646 421.989 430.189 414.324 426.723L307.303 378.295ZM407.899 440.932C407.896 440.931 407.893 440.929 407.889 440.928L407.897 440.931L407.899 440.932Z" fill="#CCCCCC" stroke="#CCCCCC" stroke-width="15.5941"/>
</svg>
